<?xml version="1.0" standalone="no"?>
<!DOCTYPE svg PUBLIC "-//W3C//DTD SVG 20010904//EN"
 "http://www.w3.org/TR/2001/REC-SVG-20010904/DTD/svg10.dtd">
<svg version="1.0" xmlns="http://www.w3.org/2000/svg"
 width="240.000000pt" height="240.000000pt" viewBox="0 0 240.000000 240.000000"
 preserveAspectRatio="xMidYMid meet">
<metadata>
Created by potrace 1.14, written by Peter Selinger 2001-2017
</metadata>
<g transform="translate(0.000000,240.000000) scale(0.100000,-0.100000)"
fill="#000000" stroke="none">
<path d="M1208 2385 c-2 -2 -17 -6 -33 -9 -17 -2 -30 -5 -30 -6 0 -2 -55 -10
-82 -12 -7 -1 -13 -5 -13 -10 0 -4 -3 -7 -7 -6 -11 2 -61 -13 -103 -30 -19 -8
-35 -13 -35 -11 0 1 -11 -4 -25 -11 -14 -8 -31 -15 -37 -16 -45 -8 -222 -129
-278 -190 -11 -12 -40 -43 -63 -69 -40 -43 -64 -86 -61 -109 0 -5 -4 -12 -10
-15 -6 -4 -13 -18 -15 -31 -2 -14 -5 -26 -7 -27 -1 -2 -2 -6 -3 -10 -1 -5 -19
-60 -39 -123 -20 -63 -39 -128 -42 -145 -3 -16 -8 -43 -11 -58 -3 -16 -1 -34
4 -40 6 -7 12 -23 14 -37 1 -14 9 -31 15 -38 17 -18 54 -142 49 -161 -3 -9 -7
-27 -10 -41 -2 -14 -9 -37 -15 -52 -6 -16 -8 -28 -5 -28 4 0 2 -6 -3 -12 -4
-7 -7 -35 -6 -63 2 -27 4 -77 6 -110 3 -42 -2 -77 -16 -115 -28 -77 -28 -146
1 -187 19 -27 73 -56 107 -58 5 0 11 -9 13 -20 3 -18 54 -184 69 -225 6 -15
13 -54 15 -77 1 -7 5 -13 10 -13 4 0 7 -3 7 -8 -4 -21 3 -41 20 -61 11 -13 21
-26 23 -29 5 -11 70 -57 104 -75 31 -16 42 -19 119 -35 79 -16 156 1 208 46 9
8 17 12 17 9 0 -8 123 71 193 122 26 20 51 36 55 36 26 2 223 145 265 193 7 7
19 22 29 32 9 10 14 21 11 24 -4 3 -1 6 5 6 6 0 14 15 18 32 10 44 10 44 32
113 18 59 19 60 55 59 20 -1 37 3 37 8 0 5 4 7 9 4 21 -13 115 54 172 123 116
141 150 261 93 332 -16 20 -10 41 27 95 26 38 32 58 33 101 1 29 5 53 9 53 5
0 6 4 2 10 -3 5 -7 81 -9 168 -2 87 -6 165 -11 171 -4 7 -9 36 -11 64 -5 81
-54 206 -106 273 -49 62 -158 174 -158 161 0 -5 -15 3 -32 16 -48 34 -229 103
-278 105 -17 1 -55 9 -55 12 0 4 -234 8 -237 5z"/>
</g>
</svg>
